<svg width="61" height="71" viewBox="0 0 61 71" fill="none" xmlns="http://www.w3.org/2000/svg">
<g clip-path="url(#clip0)">
<path d="M18.3893 0.201083C18.0458 0.203296 17.7083 0.291014 17.4072 0.456318C16.4186 1.00429 16.0561 2.27436 16.6038 3.26226L18.8358 7.29257C13.4583 10.6195 9.89505 16.3026 9.89505 22.789V23.9941C8.86216 22.8059 7.34411 22.0556 5.64794 22.0556C2.54013 22.0556 0.0168457 24.5789 0.0168457 27.6865V45.0323C0.0168457 48.1397 2.54036 50.6632 5.64794 50.6632C7.34411 50.6632 8.86216 49.9127 9.89481 48.7245V51.1542C9.89481 54.4301 12.5754 57.1104 15.8512 57.1104H17.3625V64.8267C17.3625 67.9345 19.886 70.4578 22.9936 70.4578C26.1011 70.4578 28.6244 67.9343 28.6244 64.8267V57.1104H31.2391V64.8267C31.2391 67.9345 33.7626 70.4578 36.8702 70.4578C39.9778 70.4578 42.5011 67.9343 42.5011 64.8267V57.1104H44.0125C47.2882 57.1104 49.9687 54.4301 49.9687 51.1542V48.7245C51.0014 49.9127 52.5197 50.6632 54.2158 50.6632C57.3234 50.6632 59.8467 48.1397 59.8467 45.0323V27.6865C59.8467 24.5789 57.3234 22.0556 54.2158 22.0556C52.5197 22.0556 51.0014 22.8059 49.9687 23.9941V22.9929V22.9355C49.9692 22.8745 49.9687 22.8258 49.9687 22.789C49.9687 16.3038 46.3973 10.6263 41.0217 7.29913L43.26 3.26226C43.8075 2.27436 43.4451 1.00429 42.4565 0.456318C42.1555 0.291014 41.818 0.203296 41.4745 0.201083C40.7444 0.194052 40.0279 0.578896 39.6506 1.25976L37.3101 5.48788C35.0217 4.64343 32.5317 4.18054 29.932 4.18054C27.3347 4.18054 24.84 4.63851 22.5534 5.48132L20.2132 1.25976C19.8356 0.578896 19.1193 0.194521 18.3893 0.201083Z" fill="white"/>
<path d="M5.64806 23.5223C3.32915 23.5223 1.48392 25.3676 1.48392 27.6865V45.0323C1.48392 47.3513 3.32915 49.1965 5.64806 49.1965C7.96696 49.1965 9.81243 47.3513 9.81243 45.0323V27.6865C9.81243 25.3676 7.96696 23.5223 5.64806 23.5223ZM54.2162 23.5223C51.897 23.5223 50.0518 25.3676 50.0518 27.6865V45.0323C50.0518 47.3513 51.897 49.1965 54.2162 49.1965C56.5351 49.1965 58.3803 47.3513 58.3803 45.0323V27.6865C58.3803 25.3676 56.5351 23.5223 54.2162 23.5223Z" fill="#A4C639"/>
<path d="M22.9938 43.3167C20.6749 43.3167 18.8295 45.1619 18.8295 47.4811V64.8267C18.8295 67.1456 20.6749 68.9909 22.9938 68.9909C25.3127 68.9909 27.158 67.1456 27.158 64.8267V47.4811C27.158 45.1619 25.3127 43.3167 22.9938 43.3167ZM36.8705 43.3167C34.5513 43.3167 32.7061 45.1619 32.7061 47.4811V64.8267C32.7061 67.1456 34.5513 68.9909 36.8705 68.9909C39.1894 68.9909 41.0346 67.1456 41.0346 64.8267V47.4811C41.0346 45.1619 39.1894 43.3167 36.8705 43.3167Z" fill="#A4C639"/>
<path d="M18.4018 1.66805C18.3034 1.66924 18.2068 1.69554 18.1213 1.74446C17.8243 1.90899 17.7268 2.25024 17.8916 2.54789L20.8253 7.84735C15.1815 10.7841 11.3692 16.3648 11.3617 22.7698H48.5019C48.4942 16.3648 44.6821 10.7838 39.0383 7.84735L41.9718 2.54813C42.1368 2.25047 42.039 1.90899 41.7421 1.74446C41.6566 1.69551 41.56 1.66921 41.4615 1.66805C41.2506 1.66571 41.0511 1.77118 40.9386 1.97414L37.9668 7.33078C35.5358 6.25266 32.8091 5.64727 29.9317 5.64727C27.0543 5.64727 24.3278 6.25243 21.8966 7.33078L18.9247 1.97414C18.874 1.88012 18.7985 1.80183 18.7063 1.74785C18.6141 1.69386 18.5089 1.66626 18.4021 1.66805H18.4018ZM11.3617 24.2365V51.1544C11.3604 51.7444 11.4757 52.3287 11.7009 52.8739C11.926 53.4192 12.2567 53.9146 12.6738 54.3317C13.0909 54.7488 13.5864 55.0794 14.1316 55.3046C14.6769 55.5297 15.2612 55.645 15.8511 55.6437H44.0125C44.6024 55.645 45.1868 55.5297 45.732 55.3046C46.2773 55.0794 46.7727 54.7488 47.1899 54.3316C47.607 53.9145 47.9377 53.4191 48.1628 52.8738C48.388 52.3285 48.5032 51.7441 48.5019 51.1542V24.2367H11.3617V24.2365Z" fill="#A4C639"/>
<path d="M21.3608 12.8726C20.5131 12.8726 19.8112 13.5743 19.8112 14.422C19.8112 15.27 20.5131 15.9717 21.3608 15.9717C22.2088 15.9717 22.9105 15.27 22.9105 14.422C22.9105 13.5743 22.2088 12.8726 21.3608 12.8726ZM38.5026 12.8726C37.6546 12.8726 36.9529 13.5743 36.9529 14.422C36.9529 15.27 37.6546 15.9717 38.5026 15.9717C39.3503 15.9717 40.0522 15.27 40.0522 14.422C40.0522 13.5743 39.3503 12.8726 38.5026 12.8726Z" fill="white"/>
</g>
<defs>
<clipPath id="clip0">
<rect width="60" height="70.5469" fill="white" transform="translate(0.0168457)"/>
</clipPath>
</defs>
</svg>
