<svg width="61" height="62" viewBox="0 0 61 62" fill="none" xmlns="http://www.w3.org/2000/svg">
<g clip-path="url(#clip0)">
<path opacity="0.5" d="M29.9448 9.56258V26.8079L44.909 18.1674V0.921875L29.9448 9.56258Z" fill="#13A049"/>
<path opacity="0.5" d="M29.9449 9.56258L14.981 0.921875V18.2033L29.9449 26.844V9.56258Z" fill="#A2CC39"/>
<path opacity="0.9" d="M44.909 0.921875L29.9449 9.56258L14.981 0.921875L0.0168457 9.56258L29.9449 26.844L59.8551 9.56258L44.909 0.921875Z" fill="url(#paint0_linear)"/>
<path d="M29.9449 26.844L0.0168457 9.56259V26.844L14.981 35.4847V52.7483L29.9449 61.389L44.909 52.7483V35.4847L59.8551 26.844V9.56259L29.9449 26.844Z" fill="url(#paint1_linear)"/>
<path d="M29.9448 26.844V61.389L44.909 52.7483V35.4847L59.855 26.844V9.56259L29.9448 26.844Z" fill="url(#paint2_linear)"/>
<path opacity="0.05" d="M29.9448 44.1076V61.389L44.909 52.7483L29.9448 44.1076Z" fill="#231F20"/>
<path opacity="0.1" d="M29.9449 61.4249V44.1434L14.981 52.7841L29.9449 61.4249Z" fill="#231F20"/>
<path opacity="0.05" d="M14.981 18.2033L0.0168457 26.844L14.981 35.4847L29.9449 26.844L14.981 18.2033Z" fill="#231F20"/>
<path opacity="0.05" d="M44.909 18.2033L29.9448 26.844L44.909 35.4847L59.855 26.844L44.909 18.2033Z" fill="#231F20"/>
</g>
<defs>
<linearGradient id="paint0_linear" x1="59.8623" y1="13.8806" x2="0.0168457" y2="13.8806" gradientUnits="userSpaceOnUse">
<stop stop-color="#37BDA6"/>
<stop offset="1" stop-color="#8AD3B8"/>
</linearGradient>
<linearGradient id="paint1_linear" x1="59.8623" y1="35.4748" x2="0.0168457" y2="35.4748" gradientUnits="userSpaceOnUse">
<stop offset="0.5" stop-color="#4BB6AD"/>
<stop offset="1" stop-color="#78BBC1"/>
</linearGradient>
<linearGradient id="paint2_linear" x1="29.9394" y1="35.4748" x2="59.8619" y2="35.4748" gradientUnits="userSpaceOnUse">
<stop stop-color="#4379A7"/>
<stop offset="1" stop-color="#7CC9B8"/>
</linearGradient>
<clipPath id="clip0">
<rect width="60" height="60.7031" fill="white" transform="translate(0.0168457 0.921875)"/>
</clipPath>
</defs>
</svg>
