<svg width="61" height="61" viewBox="0 0 61 61" fill="none" xmlns="http://www.w3.org/2000/svg">
<g clip-path="url(#clip0)">
<path d="M13.1568 0.273438H46.8768C54.134 0.273438 60.0168 6.15625 60.0168 13.4134V47.1334C60.0168 54.3906 54.134 60.2734 46.8768 60.2734H13.1568C5.89966 60.2734 0.0168457 54.3906 0.0168457 47.1334V13.4134C0.0168457 6.15625 5.89966 0.273438 13.1568 0.273438Z" fill="url(#paint0_linear)"/>
<path d="M19.6856 43.8791L19.6912 43.8809L17.6397 47.4341C16.8909 48.7311 15.2325 49.1755 13.9354 48.4266C12.6386 47.6778 12.194 46.0194 12.9429 44.7223L14.4541 42.1048L14.5992 41.8536C14.8582 41.4814 15.4973 40.8387 16.7758 40.9597C16.7758 40.9597 19.7845 41.2862 20.0022 42.8499C20.0022 42.8499 20.0318 43.3644 19.6856 43.8791ZM48.7816 34.8041H42.3846C41.9489 34.7748 41.7588 34.6191 41.6838 34.5287L41.6791 34.5205L34.8314 22.6597L34.8225 22.6655L34.4119 22.0768C33.7387 21.0474 32.67 23.6799 32.67 23.6799C31.3938 26.6134 32.8512 29.9483 33.359 30.9563L42.8705 47.4305C43.619 48.7273 45.2775 49.172 46.5747 48.4229C47.8715 47.6741 48.3162 46.0156 47.5671 44.7186L45.1889 40.5992C45.1427 40.4994 45.0626 40.2284 45.5503 40.2273H48.7816C50.2793 40.2273 51.4933 39.0132 51.4933 37.5155C51.4933 36.0179 50.2793 34.8038 48.7816 34.8038V34.8041ZM36.3565 38.4903C36.3565 38.4903 36.6979 40.2273 35.3768 40.2273H11.7286C10.2309 40.2273 9.01685 39.0132 9.01685 37.5155C9.01685 36.0179 10.2309 34.8038 11.7286 34.8038H17.8083C18.7898 34.7471 19.0223 34.1804 19.0223 34.1804L19.0279 34.1832L26.9639 20.4376L26.9615 20.4371C27.1061 20.1716 26.9857 19.9205 26.9648 19.8809L24.3438 15.3413C23.595 14.0445 24.0394 12.3859 25.3364 11.6373C26.6334 10.8884 28.2919 11.3326 29.0407 12.6296L30.2562 14.735L31.4695 12.6334C32.2183 11.3366 33.8768 10.8919 35.1738 11.641C36.4708 12.3898 36.9152 14.048 36.1664 15.3451L25.1231 34.4724C25.0748 34.5889 25.0601 34.7717 25.4193 34.8038H32.0203L32.0217 34.8683C32.0217 34.8683 35.8369 34.9276 36.3565 38.4903Z" fill="white"/>
</g>
<defs>
<linearGradient id="paint0_linear" x1="30.0168" y1="0.273438" x2="30.0168" y2="60.2734" gradientUnits="userSpaceOnUse">
<stop stop-color="#17C9FB"/>
<stop offset="1" stop-color="#1A74E8"/>
</linearGradient>
<clipPath id="clip0">
<rect width="60" height="60" fill="white" transform="translate(0.0168457 0.273438)"/>
</clipPath>
</defs>
</svg>
