<svg width="73" height="61" viewBox="0 0 73 61" fill="none" xmlns="http://www.w3.org/2000/svg">
<g clip-path="url(#clip0)">
<path d="M36.1578 0.273438C16.8226 0.273438 1.67442 24.8734 0.24118 45.6509C6.30879 56.1813 20.9406 60.1396 36.1584 60.1396C51.375 60.1396 66.0077 56.1813 72.0722 45.6506C70.6386 24.8734 55.4924 0.273438 36.1581 0.273438" fill="#B6DEFF"/>
<path d="M67.0196 40.7016C67.0196 40.7016 62.7492 31.4689 58.4086 26.0824C54.0649 20.6937 48.7604 14.8261 45.6241 14.8261C42.4894 14.8261 33.7266 30.341 29.7066 30.341C25.6858 30.341 23.5962 23.3078 18.6528 23.3078C13.7075 23.3078 5.85056 40.2681 5.85056 40.2681L5.31817 43.1433C5.31817 43.1433 8.04775 55.245 36.6038 55.245C65.161 55.245 67.4432 43.3419 67.4432 43.3419L67.0199 40.7013" fill="#66CC66"/>
<path d="M30.1542 36.9622C25.7193 36.9622 23.4457 32.5864 22.2131 29.8853C21.1046 27.452 20.9128 23.6103 17.7677 23.5027C18.0767 23.3802 18.3742 23.3078 18.6531 23.3078C23.5964 23.3078 25.686 30.341 29.7069 30.341C33.7269 30.341 42.4897 14.8258 45.6243 14.8258C46.215 14.8258 46.8804 15.0343 47.6024 15.405C47.0683 15.3346 46.3835 15.3836 45.8559 15.9129C44.8426 16.9264 35.6446 36.9622 30.1542 36.9622Z" fill="#17AD49"/>
</g>
<defs>
<clipPath id="clip0">
<rect width="72.1127" height="60" fill="white" transform="translate(0.0168457 0.273438)"/>
</clipPath>
</defs>
</svg>
