<svg width="677" height="514" viewBox="0 0 677 514" fill="none" xmlns="http://www.w3.org/2000/svg">
<g clip-path="url(#clip0)">
<path d="M364.213 514C500.498 514 610.979 482.383 610.979 443.381C610.979 404.379 500.498 372.762 364.213 372.762C227.928 372.762 117.447 404.379 117.447 443.381C117.447 482.383 227.928 514 364.213 514Z" fill="#F5F5F5"/>
<path d="M598.994 168.666C598.994 168.666 555.281 212.45 579.957 277.42C604.634 342.389 537.655 450.436 537.655 450.436C537.655 450.436 538.36 450.33 539.706 450.097C629.487 434.222 674.095 331.372 624.171 254.97C605.635 226.567 590.371 193.242 598.994 168.666Z" fill="#2091F9"/>
<path d="M598.994 168.666C598.994 168.666 574.317 222.337 598.994 266.12C623.67 309.904 603.224 432.781 537.655 450.436" stroke="#535461" stroke-width="2" stroke-miterlimit="10"/>
<path d="M676.845 345.757C676.845 345.757 626.963 337.799 622.415 382.578C617.868 427.358 526.529 433.558 526.529 433.558C526.529 433.558 527.121 433.968 528.242 434.702C603.682 484.305 675.801 466.297 664.937 400.431C660.869 375.947 661.193 351.35 676.845 345.757Z" fill="#2091F9"/>
<path opacity="0.2" d="M676.845 345.757C676.845 345.757 626.963 337.799 622.415 382.578C617.868 427.358 526.529 433.558 526.529 433.558C526.529 433.558 527.121 433.968 528.242 434.702C603.682 484.305 675.801 466.297 664.937 400.431C660.869 375.947 661.193 351.35 676.845 345.757Z" fill="#F5F5F5"/>
<path d="M676.845 345.757C676.845 345.757 638.124 354.274 641.303 389.541C644.483 424.808 583.779 467.067 526.501 433.544" stroke="#535461" stroke-width="2" stroke-miterlimit="10"/>
<path opacity="0.2" d="M106.744 0.0563924C101.061 -0.141341 95.2377 0.0563921 89.9076 2.04785C75.4048 7.46432 68.5306 25.1826 70.7656 40.5281C73.0005 55.8736 82.1944 69.1994 91.7337 81.4094C101.273 93.6194 111.609 105.674 116.84 120.25C119.449 127.531 120.669 135.687 118.018 142.954C113.929 154.161 101.597 160.425 89.7595 161.724C77.9218 163.024 66.0347 160.489 54.1547 159.606C49.17 159.253 44.0443 159.21 39.3487 160.849C34.1948 162.635 29.901 166.279 25.9528 170.079C10.5475 184.979 -1.78376 205.317 0.211525 226.673C2.46767 250.881 22.5897 270.019 44.6295 280.279C51.9267 283.683 59.647 286.437 66.0699 291.296C82.9911 304.106 86.7913 328.11 85.1062 349.302C83.4212 370.495 77.6821 391.709 80.8759 412.718C84.6338 437.152 101.266 459.221 123.7 469.531C143.689 478.712 168.704 478.14 186.45 465.153C195.101 458.797 201.643 450.033 207.333 440.945C215.921 427.233 222.889 412.568 228.097 397.246C230.571 389.965 232.898 382.133 238.672 377.07C242.198 373.956 246.766 372.211 251.286 370.855C264.907 366.773 279.255 365.651 293.003 362.021C306.752 358.391 320.585 351.626 328.058 339.529C338.634 322.361 333.699 300.406 333.748 280.209C333.833 234.194 361.322 192.994 371.468 148.151C374.782 133.491 376.016 117.27 368.613 104.198C363.579 95.279 355.097 88.9233 346.178 83.9799C326.578 73.0764 304.298 68.2249 282.378 63.5005C251.913 56.947 214.919 56.0996 191.307 34.8998C168.647 14.5615 137.646 0.0563924 106.744 0.0563924Z" fill="#2091F9"/>
<g opacity="0.5">
<path opacity="0.5" d="M217.253 178.165C217.252 167.073 215.517 156.051 212.113 145.496L203.653 119.219C203.653 118.781 203.653 118.35 203.653 117.92C203.914 101.077 190.807 92.6733 185.759 93.5843C180.591 94.5164 166.25 87.3133 166.25 87.3133V87.511C165.267 86.3773 164.38 85.1632 163.599 83.8812C166.077 82.0737 168.169 79.7884 169.752 77.1595C171.335 74.5306 172.378 71.6112 172.819 68.5729C173.26 65.5346 173.09 62.4387 172.319 59.4672C171.548 56.4956 170.192 53.7084 168.33 51.2694C169.88 50.1029 171.062 48.5143 171.735 46.6933C172.906 43.3954 172.01 39.6314 170.107 36.6936C169.297 35.4673 168.351 34.3372 167.286 33.3251C165.674 31.725 163.913 30.2826 162.027 29.0174C157.324 25.7548 152.156 22.9512 146.516 21.9555C145.54 21.7246 144.524 21.7246 143.548 21.9555C142.7 22.2979 141.894 22.7337 141.143 23.2549C137.28 25.4582 132.471 24.5048 128.015 24.2718C123.559 24.0387 118.145 25.2887 116.735 29.4764C116.297 30.7687 116.326 32.167 116.03 33.4946C115.325 36.7431 112.822 39.2642 110.89 41.9689C108.958 44.6736 107.513 48.3246 109.12 51.2623C109.67 52.251 110.53 53.162 110.53 54.2919C110.53 55.104 110.051 55.8314 109.825 56.6082C109.339 58.3737 110.255 60.1391 111.665 61.4173C112.273 62.0735 112.988 62.6205 113.78 63.0345C116.015 64.1785 118.589 64.5316 120.866 65.5909C122.003 66.1256 123.046 66.8411 123.954 67.7095C125.067 68.8764 125.937 70.2535 126.513 71.7605C127.089 73.2676 127.36 74.8744 127.31 76.4874L127.783 76.5369C127.783 76.6781 127.783 76.8123 127.783 76.9535C128.276 77.01 128.798 77.0594 129.313 77.0806C130.053 78.2778 130.9 79.4052 131.844 80.4491C131.684 81.0518 131.503 81.6638 131.301 82.2852C129.644 83.4363 116.093 92.4756 100.681 90.3005C84.2319 87.9771 74.8266 160.008 74.8266 160.008C74.2169 164.128 73.92 168.287 73.9382 172.452C73.8677 183.044 76.0886 196.907 88.4622 194.866L95.0403 192.698V228.325C95.0403 228.325 95.978 238.085 92.6925 244.568C89.407 251.05 103.036 248.748 103.036 248.748C103.036 248.748 103.557 249.292 104.516 250.217L104.213 251.072L104.615 251.481C102.822 257.619 100.406 263.556 97.4022 269.199L97.79 269.397C97.5432 269.87 97.4022 270.103 97.4022 270.103C97.4022 270.103 102.464 272.695 109.43 276.035C115.028 294.99 127.282 338.886 123.249 347.248L123.362 347.488C124.116 349.055 128.333 358.299 127.48 366.767C126.711 374.337 137.174 408.735 141.08 421.228L139.233 421.602L145.811 445.302L144.401 460.64C144.401 460.64 136.412 482.017 155.209 477.836C174.006 473.655 168.838 456.46 168.838 456.46L169.31 421.602C169.31 421.602 167.498 420.592 165.263 419.625C163.726 415.465 160.377 405.635 160.377 398.835C160.377 390.007 154.264 351.894 154.264 351.894V351.817V351.668V351.626L154.229 351.117V351.033C154.229 350.56 154.151 349.91 154.095 349.119V349.077C153.39 338.773 151.275 303.767 152.819 285.52C154.177 284.592 155.589 283.748 157.049 282.991C161.625 294.573 173.42 325.864 172.666 338.992C171.728 355.235 172.433 342.481 172.666 340.405C172.736 339.762 172.786 340.539 172.807 342.283C172.807 342.601 172.807 342.954 172.807 343.328C172.807 343.702 172.807 344.119 172.807 344.55C172.807 344.981 172.807 345.447 172.807 345.962C172.807 346.207 172.807 346.457 172.807 346.711C172.807 347.219 172.807 347.751 172.807 348.307C172.807 348.585 172.807 348.867 172.807 349.154C172.807 350.567 172.807 352.134 172.758 353.766C172.758 354.091 172.758 354.42 172.758 354.754C172.758 355.75 172.758 356.767 172.708 357.798C172.708 359.21 172.652 360.58 172.624 362C172.553 365.178 172.462 368.391 172.349 371.399C172.349 371.733 172.337 372.065 172.313 372.395C172.29 373.054 172.264 373.699 172.236 374.33C172.208 374.961 172.179 375.578 172.151 376.18C172.123 376.778 172.093 377.359 172.06 377.924C172.024 378.588 171.982 379.224 171.947 379.831L169.395 379.464L168.852 385.339C167.996 394.668 169.2 404.07 172.377 412.881C173.251 415.296 173.928 417.294 174.076 418.008C174.548 420.331 174.076 437.075 174.076 437.075C174.076 437.075 176.896 458.917 190.059 454.73C195.982 452.844 198.858 447.11 200.233 441.361C201.759 434.698 201.19 427.725 198.605 421.397C196.736 416.694 194.826 410.098 196.172 405C198.52 396.172 198.52 383.623 198.52 383.623L197.068 383.419C197.43 382.729 197.757 382.022 198.048 381.3C198.048 381.3 197.575 349.232 201.806 345.051C204.132 342.749 203.921 337.22 203.216 332.7C202.208 326.159 201.972 319.523 202.511 312.927C202.8 309.53 203.216 306.571 203.702 305.519C204.943 303.061 206.184 278.288 200.692 266.368L201.82 266.015L201.643 265.139L201.82 265.082C202.648 267.297 203.589 269.468 204.64 271.586C204.917 271.804 205.236 271.963 205.578 272.053C220.8 269.376 221.413 255.146 220.567 247.378C221.208 247.689 221.561 247.887 221.561 247.887L222.971 227.407C224.416 224.138 224.952 219.964 224.917 215.451C224.98 199.322 217.253 178.165 217.253 178.165ZM200.473 236.376C199.43 227.457 197.984 219.06 197.984 219.06L190.934 193.962V184.824L202.116 226.63L200.473 236.376Z" fill="url(#paint0_linear)"/>
</g>
<path d="M168.774 373.468L168.252 379.21C167.429 388.332 168.596 397.525 171.672 406.151C172.511 408.516 173.167 410.466 173.308 411.165C173.759 413.439 173.308 429.787 173.308 429.787C173.308 429.787 176.029 451.135 188.727 447.046C194.438 445.21 197.187 439.596 198.541 433.982C200.009 427.47 199.458 420.666 196.962 414.477C195.157 409.879 193.31 403.418 194.614 398.453C196.884 389.824 196.884 377.564 196.884 377.564L168.774 373.468Z" fill="#5A5773"/>
<path d="M155.174 274.913C155.174 274.913 172.856 318.061 171.947 333.95C171.037 349.839 171.721 337.354 171.947 335.313C172.349 331.676 171.947 374.86 170.586 379.803C170.586 379.803 189.178 393.425 196.433 375.262C196.433 375.262 195.982 343.928 200.057 339.84C202.299 337.594 202.081 332.184 201.418 327.771C200.44 321.386 200.203 314.91 200.713 308.471C200.988 305.152 201.368 302.228 201.862 301.232C203.223 298.506 204.583 267.625 196.419 258.995L155.174 274.913Z" fill="#605D82"/>
<path opacity="0.1" d="M172.856 379.824C174.217 374.831 174.619 331.676 174.217 335.334C173.991 337.375 173.308 349.867 174.217 333.971C175.127 318.075 157.444 274.934 157.444 274.934L197.004 259.694C196.821 259.461 196.631 259.242 196.44 259.037L155.181 274.934C155.181 274.934 172.863 318.082 171.954 333.971C171.044 349.86 171.728 337.375 171.954 335.334C172.356 331.697 171.954 374.881 170.593 379.824C170.593 379.824 178.017 385.262 185.315 384.683C178.821 384.195 172.856 379.824 172.856 379.824Z" fill="black"/>
<path d="M139.754 414.794L146.1 437.957L144.739 452.943C144.739 452.943 137.033 473.832 155.167 469.743C173.3 465.654 168.316 448.854 168.316 448.854L168.767 414.794C168.767 414.794 161.512 410.706 158.339 411.165C155.167 411.624 139.754 414.794 139.754 414.794Z" fill="#5A5773"/>
<path d="M108.471 264.016C108.471 264.016 129.327 331.683 124.342 342.128C124.342 342.128 129.327 352.12 128.424 361.195C127.522 370.269 142.934 418.869 142.934 418.869L165.608 414.78C165.608 414.78 160.165 401.158 160.165 392.528C160.165 383.899 154.271 346.626 154.271 346.626C154.271 346.626 149.287 278.5 155.181 271.233L108.471 264.016Z" fill="#605D82"/>
<g opacity="0.1">
<path opacity="0.1" d="M153.418 276.77C149.66 292.193 153.813 348.95 153.813 348.95C153.813 348.95 159.707 386.187 159.707 394.852C159.707 401.441 162.873 410.932 164.375 415.056L165.601 414.837C165.601 414.837 160.158 401.215 160.158 392.585C160.158 383.955 154.264 346.683 154.264 346.683C154.264 346.683 150.471 294.813 153.418 276.77Z" fill="black"/>
<path opacity="0.1" d="M124.342 342.128L124.455 342.361C124.49 342.128 124.525 341.881 124.547 341.655C124.487 341.816 124.418 341.974 124.342 342.128Z" fill="black"/>
<path opacity="0.1" d="M154.151 273.465C154.357 272.681 154.704 271.942 155.174 271.283L108.471 264.016C108.471 264.016 108.746 264.899 109.219 266.474L154.151 273.465Z" fill="black"/>
</g>
<path d="M217.288 239.49C217.288 239.49 224.092 264.913 203.688 268.557C203.357 268.471 203.047 268.317 202.778 268.105C202.778 268.105 190.99 244.942 200.057 235.86L217.288 239.49Z" fill="#FAC3CA"/>
<path d="M133.86 70.5624C133.86 70.5624 135.221 89.6295 120.26 98.7182C105.299 107.807 151.987 132.778 151.987 132.778L176.473 93.7183C176.473 93.7183 166.053 95.0672 159.707 76.9181L133.86 70.5624Z" fill="#FAC3CA"/>
<path opacity="0.1" d="M123.884 100.067C123.884 100.067 147.009 148.208 167.865 102.793L200.057 262.646C200.057 262.646 150.175 278.09 149.731 285.357C149.287 292.624 99.4116 266.742 99.4116 266.742C99.4116 266.742 110.29 246.757 107.576 234.497C104.862 222.238 123.884 100.067 123.884 100.067Z" fill="black"/>
<path d="M123.884 99.156C123.884 99.156 147.009 147.297 167.865 101.882L200.057 261.742C200.057 261.742 150.175 277.186 149.731 284.453C149.287 291.72 99.4116 265.831 99.4116 265.831C99.4116 265.831 110.29 245.846 107.576 233.586C104.862 221.327 123.884 99.156 123.884 99.156Z" fill="#E1E7EF"/>
<path d="M146.558 427.513C146.558 427.513 140.664 414.343 154.264 414.343C167.865 414.343 165.601 426.15 165.601 426.15L146.558 427.513Z" fill="#5A5773"/>
<path d="M177.39 393.446C177.39 393.446 171.947 379.365 185.554 378.913C199.162 378.461 192.358 391.624 192.358 391.624L177.39 393.446Z" fill="#5A5773"/>
<path opacity="0.1" d="M165.827 88.9233C165.827 88.9233 179.653 95.9852 184.645 95.0531C189.636 94.1209 202.779 102.772 201.876 120.031L210.069 145.779C213.346 156.103 215.011 166.872 215.004 177.705C215.004 177.705 226.792 210.402 220.447 224.935L219.086 244.921C219.086 244.921 208.659 239.017 197.773 240.832L200.515 224.512L188.248 178.179L167.843 128.675L165.827 88.9233Z" fill="black"/>
<path d="M165.827 88.0265C165.827 88.0265 179.653 95.0884 184.645 94.1562C189.636 93.224 202.779 101.875 201.876 119.134L210.069 144.882C213.346 155.206 215.011 165.975 215.004 176.809C215.004 176.809 226.792 209.505 220.447 224.039L219.086 244.024C219.086 244.024 208.659 238.12 197.773 239.935L200.494 223.587L188.248 177.268L167.865 127.764L165.827 88.0265Z" fill="#67647E"/>
<path opacity="0.1" d="M188.727 143.208V194.527L195.531 219.053C195.531 219.053 200.064 245.846 198.703 254.023C197.343 262.201 175.578 264.016 169.684 257.201C163.789 250.387 166.962 192.232 166.962 192.232L165.827 107.101L166.737 104.375L188.727 143.208Z" fill="black"/>
<path d="M189.658 140.941V192.26L196.461 216.786C196.461 216.786 200.995 243.579 199.634 251.757C198.273 259.934 176.508 261.749 170.614 254.934C164.72 248.12 167.893 189.965 167.893 189.965L166.758 104.813L189.658 140.941Z" fill="#67647E"/>
<path opacity="0.1" d="M98.2694 183.63L112.779 228.827L105.976 248.127C105.976 248.127 138.168 282.186 158.572 265.838C158.572 265.838 160.842 196.349 156.302 180.001C151.761 163.652 130.004 108.676 130.004 108.676L125.498 94.1633L101.47 107.786L98.2694 183.63Z" fill="black"/>
<path d="M97.1343 181.356V225.846C97.1343 225.846 98.0438 235.387 94.8641 241.743C91.6843 248.098 104.84 245.832 104.84 245.832C104.84 245.832 137.033 279.891 157.437 263.543C157.437 263.543 159.707 194.054 155.167 177.705C150.626 161.357 128.868 106.38 128.868 106.38L124.335 91.8469L100.307 105.469L97.1343 181.356Z" fill="#67647E"/>
<path opacity="0.1" d="M132.274 83.9447C132.274 83.9447 118.448 94.1633 102.577 91.8893C86.7066 89.6154 77.6397 160.015 77.6397 160.015C77.6397 160.015 71.7456 196.349 90.7889 193.171L132.958 179.09C132.958 179.09 123.891 169.549 125.252 157.29L104.84 165.46L105.757 126.408L132.274 83.9447Z" fill="black"/>
<path opacity="0.1" d="M78.5422 159.105C78.5422 159.105 72.648 195.438 91.6913 192.26L133.86 178.179C133.86 178.179 124.793 168.645 126.154 156.379L105.757 164.556L78.5422 159.105Z" fill="black"/>
<path d="M125.153 161.166C125.153 161.166 139.303 142.53 149.724 151.478C160.144 160.425 128.89 176.823 128.89 176.823L125.153 161.166Z" fill="#FAC3CA"/>
<path d="M132.274 83.0338C132.274 83.0338 118.448 93.2524 102.577 90.9784C86.7066 88.7045 77.6397 159.105 77.6397 159.105C77.6397 159.105 71.7456 195.438 90.7889 192.26L132.958 178.179C132.958 178.179 123.891 168.638 125.252 156.379L104.84 164.556L105.757 125.497L128.883 106.43L132.274 83.0338Z" fill="#67647E"/>
<path opacity="0.1" d="M160.158 77.808L134.311 71.4523C134.311 71.4523 135.658 72.9776 134.086 78.9449C138.246 83.7258 143.357 90.0745 150.182 90.0745C155.066 90.0837 159.821 88.5051 163.733 85.5761C162.273 83.1192 161.075 80.5155 160.158 77.808Z" fill="black"/>
<path d="M149.731 89.1705C162.253 89.1705 172.405 79.0024 172.405 66.4595C172.405 53.9165 162.253 43.7484 149.731 43.7484C137.208 43.7484 127.056 53.9165 127.056 66.4595C127.056 79.0024 137.208 89.1705 149.731 89.1705Z" fill="#FAC3CA"/>
<path opacity="0.1" d="M158.325 56.6011C163.585 55.7042 169.366 53.3668 171.129 48.3246C172.257 45.0973 171.397 41.4251 169.557 38.5509C167.717 35.6767 165.009 33.4663 162.217 31.489C157.684 28.297 152.685 25.557 147.228 24.5966C146.287 24.3713 145.306 24.3713 144.365 24.5966C143.547 24.9321 142.769 25.3584 142.046 25.8677C138.316 28.0216 133.677 27.0895 129.355 26.8635C125.033 26.6375 119.851 27.8592 118.49 31.948C118.067 33.2121 118.095 34.5751 117.785 35.8745C117.08 39.0523 114.69 41.524 112.85 44.1722C111.01 46.8204 109.593 50.4008 111.144 53.2538C111.672 54.2213 112.554 55.111 112.554 56.2127C112.418 56.9957 112.181 57.7577 111.849 58.4796C111.207 60.8241 113.075 63.1899 115.233 64.3056C117.39 65.4214 119.872 65.7674 122.072 66.8055C124.131 67.8232 125.855 69.4117 127.038 71.3822C128.222 73.3527 128.815 75.6223 128.749 77.921C130.751 78.154 133.085 78.2741 134.438 76.7769C135.045 76.1061 135.341 75.2092 135.891 74.496C136.596 73.5638 137.696 73.013 138.598 72.2644C143.343 68.3592 139.973 62.9639 142.659 58.755C144.069 56.587 146.311 57.2508 148.582 57.2861C151.844 57.3626 155.106 57.1332 158.325 56.6011Z" fill="black"/>
<path d="M157.874 56.1491C163.134 55.2522 168.915 52.9147 170.678 47.8725C171.806 44.6453 170.946 40.9731 169.106 38.0989C167.265 35.2247 164.558 33.0143 161.766 31.037C157.233 27.845 152.234 25.105 146.777 24.1446C145.836 23.9193 144.855 23.9193 143.914 24.1446C143.096 24.48 142.318 24.9064 141.595 25.4157C137.865 27.5696 133.226 26.6374 128.904 26.4114C124.582 26.1855 119.4 27.4072 118.039 31.496C117.616 32.7601 117.644 34.123 117.334 35.4224C116.629 38.6003 114.239 41.0719 112.399 43.7202C110.558 46.3684 109.141 49.9488 110.692 52.8018C111.221 53.7692 112.102 54.659 112.102 55.7607C111.966 56.5437 111.729 57.3057 111.397 58.0276C110.756 60.3721 112.624 62.7378 114.782 63.8536C116.939 64.9694 119.421 65.3154 121.621 66.3535C123.688 67.3701 125.419 68.9618 126.607 70.9381C127.795 72.9143 128.389 75.1915 128.319 77.4972C130.321 77.7302 132.655 77.8503 134.008 76.3532C134.615 75.6823 134.911 74.7854 135.461 74.0722C136.166 73.14 137.266 72.5892 138.168 71.8406C142.913 67.9354 139.543 62.5401 142.229 58.3312C143.639 56.1632 145.881 56.827 148.152 56.8623C151.407 56.9281 154.662 56.6894 157.874 56.1491Z" fill="#4A4347"/>
<path opacity="0.1" d="M185.322 132.538C185.322 132.538 190.306 158.426 188.043 168.419C186.66 174.232 186.865 180.311 188.635 186.017" fill="black"/>
<path opacity="0.1" d="M104.742 143.434C104.742 143.434 102.57 160.693 106.187 164.323L104.742 143.434Z" fill="black"/>
<path d="M231.347 356.131C231.627 356.131 231.896 356.02 232.095 355.821C232.293 355.622 232.405 355.353 232.405 355.072C232.405 354.791 232.293 354.522 232.095 354.323C231.896 354.124 231.627 354.013 231.347 354.013C231.067 354.013 230.798 354.124 230.599 354.323C230.401 354.522 230.289 354.791 230.289 355.072C230.289 355.353 230.401 355.622 230.599 355.821C230.798 356.02 231.067 356.131 231.347 356.131Z" fill="black"/>
<g opacity="0.5">
<path opacity="0.5" d="M556.987 232.725V232.139L364.622 83.98C364.501 83.89 364.354 83.8414 364.202 83.8414C364.051 83.8414 363.904 83.89 363.783 83.98L171.411 232.139V461.791H171.778V462.159H557.361V232.506L556.987 232.725Z" fill="url(#paint1_linear)"/>
</g>
<path d="M550.345 455.386H178.081V233.643L364.213 90.2864L550.345 233.643V455.386Z" fill="white"/>
<path d="M536.949 442.244H191.477V236.461L364.213 103.422L536.949 236.461V442.244Z" fill="#E0E0E0"/>
<path d="M422.815 100.347L212.076 155.683L282.342 424.143L493.08 368.807L422.815 100.347Z" fill="#2091F9"/>
<path d="M474.2 141.132H256.341V418.664H474.2V141.132Z" fill="#F5F5F5"/>
<path opacity="0.05" d="M179.843 233.996L365.976 344.868L179.843 455.739V233.996Z" fill="black"/>
<path d="M178.433 233.996L364.566 344.868L178.433 455.739V233.996Z" fill="white"/>
<path opacity="0.05" d="M549.288 233.996L363.156 344.868L549.288 455.739V233.996Z" fill="black"/>
<path d="M550.698 233.996L364.566 344.868L550.698 455.739V233.996Z" fill="white"/>
<path opacity="0.05" d="M178.433 452.208L364.566 306.733L550.698 452.208H178.433Z" fill="black"/>
<path d="M178.433 455.739L364.566 310.264L550.698 455.739H178.433Z" fill="white"/>
<path d="M216.259 472.582C216.259 472.582 206.91 440.803 218.015 417.4C222.733 407.618 224.155 396.566 222.069 385.904C221.039 380.852 219.55 375.904 217.62 371.124" stroke="#535461" stroke-width="2" stroke-miterlimit="10"/>
<path d="M224.522 356.336C224.522 360.234 217.472 371.526 217.472 371.526C217.472 371.526 210.421 360.227 210.421 356.336C210.421 354.463 211.164 352.667 212.486 351.343C213.808 350.018 215.602 349.274 217.472 349.274C219.342 349.274 221.135 350.018 222.457 351.343C223.779 352.667 224.522 354.463 224.522 356.336Z" fill="#6C63FF"/>
<path d="M236.191 377.917C234.075 381.187 222.033 386.837 222.033 386.837C222.033 386.837 222.252 373.518 224.367 370.248C225.421 368.769 227.005 367.754 228.787 367.415C230.569 367.075 232.414 367.437 233.937 368.425C235.46 369.413 236.544 370.951 236.964 372.719C237.383 374.487 237.107 376.349 236.191 377.917Z" fill="#6C63FF"/>
<path d="M235.655 414.787C232.179 416.539 218.938 415.331 218.938 415.331C218.938 415.331 225.841 403.947 229.309 402.196C230.14 401.731 231.055 401.439 232.001 401.337C232.947 401.236 233.904 401.327 234.813 401.606C235.723 401.884 236.567 402.345 237.295 402.958C238.022 403.572 238.618 404.328 239.047 405.178C239.475 406.029 239.727 406.958 239.788 407.909C239.849 408.86 239.717 409.813 239.4 410.711C239.083 411.61 238.588 412.435 237.944 413.136C237.3 413.838 236.522 414.402 235.655 414.795V414.787Z" fill="#6C63FF"/>
<path d="M228.999 442.604C225.869 444.921 212.614 445.966 212.614 445.966C212.614 445.966 217.493 433.579 220.623 431.263C222.129 430.256 223.965 429.869 225.748 430.181C227.532 430.492 229.128 431.48 230.204 432.938C231.281 434.396 231.757 436.213 231.532 438.012C231.308 439.812 230.401 441.456 228.999 442.604Z" fill="#6C63FF"/>
<path d="M207.22 387.585C210.04 390.297 223.006 393.114 223.006 393.114C223.006 393.114 219.827 380.184 217.035 377.472C215.676 376.27 213.908 375.638 212.097 375.707C210.286 375.776 208.571 376.541 207.308 377.843C206.045 379.145 205.331 380.885 205.315 382.7C205.299 384.515 205.981 386.267 207.22 387.592V387.585Z" fill="#6C63FF"/>
<path d="M199.846 420.218C203.321 421.969 216.562 420.762 216.562 420.762C216.562 420.762 209.66 409.378 206.191 407.627C204.535 406.877 202.653 406.797 200.939 407.404C199.226 408.01 197.812 409.256 196.993 410.881C196.174 412.507 196.014 414.386 196.546 416.127C197.077 417.868 198.259 419.336 199.846 420.225V420.218Z" fill="#6C63FF"/>
<path d="M197.025 452.915C200.156 455.231 213.411 456.276 213.411 456.276C213.411 456.276 208.532 443.89 205.401 441.573C204.662 440.968 203.808 440.519 202.891 440.254C201.973 439.99 201.012 439.914 200.065 440.033C199.117 440.151 198.204 440.461 197.38 440.944C196.555 441.426 195.838 442.072 195.27 442.84C194.702 443.609 194.296 444.485 194.077 445.416C193.857 446.347 193.829 447.312 193.993 448.254C194.157 449.196 194.51 450.095 195.032 450.896C195.553 451.697 196.231 452.384 197.025 452.915Z" fill="#6C63FF"/>
<path opacity="0.5" d="M356.458 153.843H269.032V160.905H356.458V153.843Z" fill="#6C63FF"/>
<path opacity="0.5" d="M457.984 182.091H269.032V189.153H457.984V182.091Z" fill="#6C63FF"/>
<path opacity="0.5" d="M457.984 200.452H269.032V207.514H457.984V200.452Z" fill="#6C63FF"/>
<path opacity="0.4" d="M457.984 218.813H269.032V225.875H457.984V218.813Z" fill="#6C63FF"/>
<path opacity="0.4" d="M457.984 237.174H269.032V244.236H457.984V237.174Z" fill="#6C63FF"/>
<path opacity="0.3" d="M376.904 255.535H269.032V262.597H376.904V255.535Z" fill="#6C63FF"/>
<path opacity="0.3" d="M416.387 273.896H269.032V280.958H416.387V273.896Z" fill="#6C63FF"/>
</g>
<defs>
<linearGradient id="paint0_linear" x1="73.9453" y1="250.118" x2="224.839" y2="250.118" gradientUnits="userSpaceOnUse">
<stop stop-color="#808080" stop-opacity="0.25"/>
<stop offset="0.54" stop-color="#808080" stop-opacity="0.12"/>
<stop offset="1" stop-color="#808080" stop-opacity="0.1"/>
</linearGradient>
<linearGradient id="paint1_linear" x1="245956" y1="280247" x2="245956" y2="77563.2" gradientUnits="userSpaceOnUse">
<stop stop-color="#808080" stop-opacity="0.25"/>
<stop offset="0.54" stop-color="#808080" stop-opacity="0.12"/>
<stop offset="1" stop-color="#808080" stop-opacity="0.1"/>
</linearGradient>
<clipPath id="clip0">
<rect width="677" height="514" fill="white"/>
</clipPath>
</defs>
</svg>
