<svg width="41" height="41" viewBox="0 0 41 41" fill="none" xmlns="http://www.w3.org/2000/svg">
<path d="M37.1449 10.1786C35.9201 10.707 34.5873 11.0872 33.2144 11.2353C34.6398 10.3885 35.7072 9.05071 36.2163 7.47289C34.8788 8.26857 33.4135 8.82651 31.8855 9.12196C31.2469 8.43923 30.4745 7.89533 29.6165 7.52416C28.7584 7.15299 27.8332 6.9625 26.8983 6.96456C23.1158 6.96456 20.0739 10.0306 20.0739 13.793C20.0739 14.3213 20.1379 14.8497 20.242 15.358C14.5783 15.0618 9.52702 12.3561 6.16884 8.21337C5.55694 9.25851 5.23629 10.4485 5.24023 11.6596C5.24023 14.0291 6.44502 16.1185 8.28221 17.3473C7.19952 17.3047 6.14219 17.0071 5.19621 16.4787V16.5628C5.19621 19.8809 7.54173 22.6307 10.6678 23.2631C10.0808 23.4156 9.47701 23.4936 8.87059 23.4953C8.4263 23.4953 8.00603 23.4513 7.58175 23.3912C8.44631 26.097 10.9639 28.0623 13.9619 28.1263C11.6164 29.9635 8.67846 31.0442 5.48839 31.0442C4.91602 31.0442 4.38768 31.0242 3.83932 30.9601C6.86529 32.9014 10.4556 34.0221 14.3221 34.0221C26.8743 34.0221 33.7427 23.6234 33.7427 14.5975C33.7427 14.3013 33.7427 14.0051 33.7227 13.7089C35.0516 12.7363 36.2163 11.5315 37.1449 10.1786Z" fill="white"/>
</svg>
